<?xml version="1.0" encoding="UTF-8" standalone="no"?>
<!DOCTYPE svg PUBLIC "-//W3C//DTD SVG 1.1//EN"
 "http://www.w3.org/Graphics/SVG/1.1/DTD/svg11.dtd">
<!-- Generated by graphviz version 7.1.0 (0)
 -->
<!-- Pages: 1 -->
<svg width="592pt" height="254pt"
 viewBox="0.00 0.00 592.00 254.00" xmlns="http://www.w3.org/2000/svg" xmlns:xlink="http://www.w3.org/1999/xlink">
<g id="graph0" class="graph" transform="scale(1 1) rotate(0) translate(4 250)">
<polygon fill="white" stroke="none" points="-4,4 -4,-250 588,-250 588,4 -4,4"/>
<g id="clust1" class="cluster group_host_1">
<title>cluster_0</title>
<polygon fill="none" stroke="black" points="236,-91 236,-238 576,-238 576,-91 236,-91"/>
<text text-anchor="middle" x="406" y="-222.8" font-family="Roboto,sans-serif" font-size="14.00">Host 1</text>
</g>
<g id="clust2" class="cluster group_host_2">
<title>cluster_1</title>
<polygon fill="none" stroke="black" points="8,-8 8,-83 576,-83 576,-8 8,-8"/>
<text text-anchor="middle" x="292" y="-67.8" font-family="Roboto,sans-serif" font-size="14.00">Host 2</text>
</g>
<!-- tbb -->
<g id="node1" class="node">
<title>tbb</title>
<ellipse fill="none" stroke="black" cx="406" cy="-189" rx="108.58" ry="18"/>
<text text-anchor="middle" x="406" y="-185.3" font-family="Times,serif" font-size="14.00">subvolume to be backed up</text>
</g>
<!-- sh11 -->
<g id="node2" class="node">
<title>sh11</title>
<ellipse fill="none" stroke="black" cx="292" cy="-117" rx="48.19" ry="18"/>
<text text-anchor="middle" x="292" y="-113.3" font-family="Times,serif" font-size="14.00">snapshot 1</text>
</g>
<!-- tbb&#45;&gt;sh11 -->
<g id="edge1" class="edge">
<title>tbb&#45;&gt;sh11</title>
<path fill="none" stroke="black" d="M378.69,-171.23C362.84,-161.5 342.72,-149.15 325.86,-138.79"/>
<polygon fill="black" stroke="black" points="328.01,-136.01 317.66,-133.76 324.35,-141.97 328.01,-136.01"/>
</g>
<!-- sh12 -->
<g id="node3" class="node">
<title>sh12</title>
<ellipse fill="none" stroke="black" cx="406" cy="-117" rx="48.19" ry="18"/>
<text text-anchor="middle" x="406" y="-113.3" font-family="Times,serif" font-size="14.00">snapshot 2</text>
</g>
<!-- tbb&#45;&gt;sh12 -->
<g id="edge2" class="edge">
<title>tbb&#45;&gt;sh12</title>
<path fill="none" stroke="black" d="M406,-170.7C406,-163.41 406,-154.73 406,-146.54"/>
<polygon fill="black" stroke="black" points="409.5,-146.62 406,-136.62 402.5,-146.62 409.5,-146.62"/>
</g>
<!-- sh1n -->
<g id="node4" class="node">
<title>sh1n</title>
<ellipse fill="none" stroke="black" cx="520" cy="-117" rx="48.19" ry="18"/>
<text text-anchor="middle" x="520" y="-113.3" font-family="Times,serif" font-size="14.00">snapshot n</text>
</g>
<!-- tbb&#45;&gt;sh1n -->
<g id="edge3" class="edge">
<title>tbb&#45;&gt;sh1n</title>
<path fill="none" stroke="black" d="M433.31,-171.23C449.16,-161.5 469.28,-149.15 486.14,-138.79"/>
<polygon fill="black" stroke="black" points="487.65,-141.97 494.34,-133.76 483.99,-136.01 487.65,-141.97"/>
</g>
<!-- sh21 -->
<g id="node5" class="node">
<title>sh21</title>
<ellipse fill="none" stroke="black" cx="292" cy="-34" rx="48.19" ry="18"/>
<text text-anchor="middle" x="292" y="-30.3" font-family="Times,serif" font-size="14.00">snapshot 1</text>
</g>
<!-- sh11&#45;&gt;sh21 -->
<g id="edge4" class="edge">
<title>sh11&#45;&gt;sh21</title>
<path fill="none" stroke="black" d="M292,-98.82C292,-88.69 292,-75.6 292,-63.92"/>
<polygon fill="black" stroke="black" points="295.5,-63.95 292,-53.95 288.5,-63.95 295.5,-63.95"/>
</g>
<!-- sh22 -->
<g id="node6" class="node">
<title>sh22</title>
<ellipse fill="none" stroke="black" cx="406" cy="-34" rx="48.19" ry="18"/>
<text text-anchor="middle" x="406" y="-30.3" font-family="Times,serif" font-size="14.00">snapshot 2</text>
</g>
<!-- sh12&#45;&gt;sh22 -->
<g id="edge5" class="edge">
<title>sh12&#45;&gt;sh22</title>
<path fill="none" stroke="black" d="M406,-98.82C406,-88.69 406,-75.6 406,-63.92"/>
<polygon fill="black" stroke="black" points="409.5,-63.95 406,-53.95 402.5,-63.95 409.5,-63.95"/>
</g>
<!-- sh23 -->
<g id="node7" class="node">
<title>sh23</title>
<ellipse fill="none" stroke="black" cx="520" cy="-34" rx="48.19" ry="18"/>
<text text-anchor="middle" x="520" y="-30.3" font-family="Times,serif" font-size="14.00">snapshot 3</text>
</g>
<!-- sh1n&#45;&gt;sh23 -->
<g id="edge6" class="edge">
<title>sh1n&#45;&gt;sh23</title>
<path fill="none" stroke="black" d="M520,-98.82C520,-88.69 520,-75.6 520,-63.92"/>
<polygon fill="black" stroke="black" points="523.5,-63.95 520,-53.95 516.5,-63.95 523.5,-63.95"/>
</g>
<!-- sh24 -->
<g id="node8" class="node">
<title>sh24</title>
<ellipse fill="none" stroke="black" cx="178" cy="-34" rx="48.19" ry="18"/>
<text text-anchor="middle" x="178" y="-30.3" font-family="Times,serif" font-size="14.00">snapshot 4</text>
</g>
<!-- sh2n -->
<g id="node9" class="node">
<title>sh2n</title>
<ellipse fill="none" stroke="black" cx="64" cy="-34" rx="48.19" ry="18"/>
<text text-anchor="middle" x="64" y="-30.3" font-family="Times,serif" font-size="14.00">snapshot n</text>
</g>
</g>
</svg>
