<?xml version="1.0" encoding="UTF-8" standalone="no"?>
<!DOCTYPE svg PUBLIC "-//W3C//DTD SVG 1.1//EN"
 "http://www.w3.org/Graphics/SVG/1.1/DTD/svg11.dtd">
<!-- Generated by graphviz version 2.50.0 (0)
 -->
<!-- Pages: 1 -->
<svg width="728pt" height="254pt"
 viewBox="0.00 0.00 728.00 254.00" xmlns="http://www.w3.org/2000/svg" xmlns:xlink="http://www.w3.org/1999/xlink">
<g id="graph0" class="graph" transform="scale(1 1) rotate(0) translate(4 250)">
<polygon fill="white" stroke="transparent" points="-4,4 -4,-250 724,-250 724,4 -4,4"/>
<g id="clust1" class="cluster group_host_1">
<title>cluster_0</title>
<polygon fill="none" stroke="black" points="290,-91 290,-238 712,-238 712,-91 290,-91"/>
<text text-anchor="middle" x="501" y="-222.8" font-family="Roboto,sans-serif" font-size="14.00">Host 1</text>
</g>
<g id="clust2" class="cluster group_host_2">
<title>cluster_1</title>
<polygon fill="none" stroke="black" points="8,-8 8,-83 712,-83 712,-8 8,-8"/>
<text text-anchor="middle" x="360" y="-67.8" font-family="Roboto,sans-serif" font-size="14.00">Host 2</text>
</g>
<!-- tbb -->
<g id="node1" class="node">
<title>tbb</title>
<ellipse fill="none" stroke="black" cx="501" cy="-189" rx="137.58" ry="18"/>
<text text-anchor="middle" x="501" y="-185.3" font-family="Times,serif" font-size="14.00">subvolume to be backed up</text>
</g>
<!-- sh11 -->
<g id="node2" class="node">
<title>sh11</title>
<ellipse fill="none" stroke="black" cx="360" cy="-117" rx="61.99" ry="18"/>
<text text-anchor="middle" x="360" y="-113.3" font-family="Times,serif" font-size="14.00">snapshot 1</text>
</g>
<!-- tbb&#45;&gt;sh11 -->
<g id="edge1" class="edge">
<title>tbb&#45;&gt;sh11</title>
<path fill="none" stroke="black" d="M467.58,-171.41C447.01,-161.2 420.55,-148.06 399.02,-137.37"/>
<polygon fill="black" stroke="black" points="400.33,-134.12 389.82,-132.8 397.22,-140.39 400.33,-134.12"/>
</g>
<!-- sh12 -->
<g id="node3" class="node">
<title>sh12</title>
<ellipse fill="none" stroke="black" cx="501" cy="-117" rx="61.99" ry="18"/>
<text text-anchor="middle" x="501" y="-113.3" font-family="Times,serif" font-size="14.00">snapshot 2</text>
</g>
<!-- tbb&#45;&gt;sh12 -->
<g id="edge2" class="edge">
<title>tbb&#45;&gt;sh12</title>
<path fill="none" stroke="black" d="M501,-170.7C501,-162.98 501,-153.71 501,-145.11"/>
<polygon fill="black" stroke="black" points="504.5,-145.1 501,-135.1 497.5,-145.1 504.5,-145.1"/>
</g>
<!-- sh1n -->
<g id="node4" class="node">
<title>sh1n</title>
<ellipse fill="none" stroke="black" cx="642" cy="-117" rx="61.99" ry="18"/>
<text text-anchor="middle" x="642" y="-113.3" font-family="Times,serif" font-size="14.00">snapshot n</text>
</g>
<!-- tbb&#45;&gt;sh1n -->
<g id="edge3" class="edge">
<title>tbb&#45;&gt;sh1n</title>
<path fill="none" stroke="black" d="M534.42,-171.41C554.99,-161.2 581.45,-148.06 602.98,-137.37"/>
<polygon fill="black" stroke="black" points="604.78,-140.39 612.18,-132.8 601.67,-134.12 604.78,-140.39"/>
</g>
<!-- sh21 -->
<g id="node5" class="node">
<title>sh21</title>
<ellipse fill="none" stroke="black" cx="360" cy="-34" rx="61.99" ry="18"/>
<text text-anchor="middle" x="360" y="-30.3" font-family="Times,serif" font-size="14.00">snapshot 1</text>
</g>
<!-- sh11&#45;&gt;sh21 -->
<g id="edge4" class="edge">
<title>sh11&#45;&gt;sh21</title>
<path fill="none" stroke="black" d="M360,-98.82C360,-88.19 360,-74.31 360,-62.2"/>
<polygon fill="black" stroke="black" points="363.5,-62.15 360,-52.15 356.5,-62.15 363.5,-62.15"/>
</g>
<!-- sh22 -->
<g id="node6" class="node">
<title>sh22</title>
<ellipse fill="none" stroke="black" cx="501" cy="-34" rx="61.99" ry="18"/>
<text text-anchor="middle" x="501" y="-30.3" font-family="Times,serif" font-size="14.00">snapshot 2</text>
</g>
<!-- sh12&#45;&gt;sh22 -->
<g id="edge5" class="edge">
<title>sh12&#45;&gt;sh22</title>
<path fill="none" stroke="black" d="M501,-98.82C501,-88.19 501,-74.31 501,-62.2"/>
<polygon fill="black" stroke="black" points="504.5,-62.15 501,-52.15 497.5,-62.15 504.5,-62.15"/>
</g>
<!-- sh23 -->
<g id="node7" class="node">
<title>sh23</title>
<ellipse fill="none" stroke="black" cx="642" cy="-34" rx="61.99" ry="18"/>
<text text-anchor="middle" x="642" y="-30.3" font-family="Times,serif" font-size="14.00">snapshot 3</text>
</g>
<!-- sh1n&#45;&gt;sh23 -->
<g id="edge6" class="edge">
<title>sh1n&#45;&gt;sh23</title>
<path fill="none" stroke="black" d="M642,-98.82C642,-88.19 642,-74.31 642,-62.2"/>
<polygon fill="black" stroke="black" points="645.5,-62.15 642,-52.15 638.5,-62.15 645.5,-62.15"/>
</g>
<!-- sh24 -->
<g id="node8" class="node">
<title>sh24</title>
<ellipse fill="none" stroke="black" cx="219" cy="-34" rx="61.99" ry="18"/>
<text text-anchor="middle" x="219" y="-30.3" font-family="Times,serif" font-size="14.00">snapshot 4</text>
</g>
<!-- sh2n -->
<g id="node9" class="node">
<title>sh2n</title>
<ellipse fill="none" stroke="black" cx="78" cy="-34" rx="61.99" ry="18"/>
<text text-anchor="middle" x="78" y="-30.3" font-family="Times,serif" font-size="14.00">snapshot n</text>
</g>
</g>
</svg>
